<svg width="246" height="50" viewBox="0 0 246 50" fill="none" xmlns="http://www.w3.org/2000/svg">
<path d="M38.0909 17.3182C37.9242 16.0909 37.6212 14.9924 37.1818 14.0227C36.7424 13.0379 36.1515 12.2045 35.4091 11.5227C34.6667 10.8258 33.7652 10.2955 32.7045 9.93182C31.6439 9.56818 30.4091 9.38636 29 9.38636C26.5 9.38636 24.1288 10.0152 21.8864 11.2727C19.6439 12.5303 17.7273 14.3788 16.1364 16.8182C14.5455 19.2424 13.4621 22.197 12.8864 25.6818C12.3106 29.197 12.3409 32.1742 12.9773 34.6136C13.6136 37.053 14.7803 38.9091 16.4773 40.1818C18.1894 41.4394 20.3409 42.0682 22.9318 42.0682C25.3106 42.0682 27.4697 41.6136 29.4091 40.7045C31.3485 39.7955 32.9545 38.5076 34.2273 36.8409C35.5152 35.1591 36.3333 33.1894 36.6818 30.9318L38.5455 31.2273H25.8864L27.0227 24.6364H45.9091L44.9545 30.2273C44.303 34.2273 42.8864 37.6818 40.7045 40.5909C38.5379 43.4848 35.8333 45.7197 32.5909 47.2955C29.3636 48.8561 25.8258 49.6364 21.9773 49.6364C17.7045 49.6364 14.1061 48.6742 11.1818 46.75C8.27273 44.8106 6.21212 42.0606 5 38.5C3.78788 34.9242 3.59091 30.6818 4.40909 25.7727C5.01515 22.0152 6.09091 18.6591 7.63636 15.7045C9.19697 12.75 11.1061 10.2424 13.3636 8.18182C15.6364 6.10606 18.1591 4.5303 20.9318 3.45454C23.7045 2.36363 26.6136 1.81818 29.6591 1.81818C32.2197 1.81818 34.553 2.19697 36.6591 2.95454C38.7652 3.69697 40.5682 4.75757 42.0682 6.13636C43.5833 7.51515 44.7424 9.15151 45.5455 11.0455C46.3485 12.9394 46.7273 15.0303 46.6818 17.3182H38.0909ZM64.9943 49.6818C61.4943 49.6818 58.6004 48.9545 56.3125 47.5C54.0246 46.0303 52.4186 43.9545 51.4943 41.2727C50.5852 38.5758 50.4337 35.4015 51.0398 31.75C51.6307 28.1591 52.8352 25.0076 54.6534 22.2955C56.4716 19.5682 58.7443 17.447 61.4716 15.9318C64.214 14.4015 67.2443 13.6364 70.5625 13.6364C72.714 13.6364 74.6913 13.9848 76.4943 14.6818C78.2973 15.3636 79.8201 16.4242 81.0625 17.8636C82.3049 19.303 83.161 21.1364 83.6307 23.3636C84.1004 25.5758 84.0777 28.2121 83.5625 31.2727L83.1761 33.7955H54.5398L55.4261 28.25H76.1534C76.4261 26.6742 76.3352 25.2727 75.8807 24.0455C75.4261 22.803 74.6686 21.8258 73.608 21.1136C72.5473 20.4015 71.2216 20.0455 69.6307 20.0455C68.0095 20.0455 66.4943 20.4621 65.0852 21.2955C63.6913 22.1136 62.517 23.1742 61.5625 24.4773C60.608 25.7803 60.0019 27.1515 59.7443 28.5909L58.8125 33.9091C58.4792 36.0909 58.5549 37.8712 59.0398 39.25C59.5246 40.6288 60.3731 41.6439 61.5852 42.2955C62.7973 42.947 64.3277 43.2727 66.1761 43.2727C67.3883 43.2727 68.5095 43.1061 69.5398 42.7727C70.5701 42.4394 71.4867 41.9394 72.2898 41.2727C73.108 40.5909 73.7898 39.7576 74.3352 38.7727L81.858 39.6364C81.0246 41.6667 79.8049 43.4394 78.1989 44.9545C76.5928 46.4545 74.6686 47.6212 72.4261 48.4545C70.1989 49.2727 67.7216 49.6818 64.9943 49.6818ZM102.949 49.6818C99.5095 49.6818 96.6458 48.9242 94.358 47.4091C92.0852 45.8939 90.4867 43.7652 89.5625 41.0227C88.6383 38.2803 88.4716 35.0985 89.0625 31.4773C89.6534 27.9015 90.8352 24.7727 92.608 22.0909C94.3958 19.4091 96.6458 17.3333 99.358 15.8636C102.085 14.3788 105.138 13.6364 108.517 13.6364C111.956 13.6364 114.813 14.4015 117.085 15.9318C119.358 17.447 120.956 19.5758 121.881 22.3182C122.82 25.0606 122.994 28.2576 122.403 31.9091C121.828 35.4697 120.638 38.5833 118.835 41.25C117.047 43.9167 114.797 45.9924 112.085 47.4773C109.373 48.947 106.328 49.6818 102.949 49.6818ZM103.631 43.0909C105.54 43.0909 107.214 42.5758 108.653 41.5455C110.108 40.5 111.297 39.0985 112.222 37.3409C113.161 35.5682 113.813 33.5985 114.176 31.4318C114.509 29.3409 114.517 27.447 114.199 25.75C113.881 24.0379 113.199 22.6818 112.153 21.6818C111.123 20.6667 109.691 20.1591 107.858 20.1591C105.949 20.1591 104.259 20.6894 102.79 21.75C101.335 22.7955 100.146 24.2045 99.2216 25.9773C98.2973 27.7348 97.661 29.697 97.3125 31.8636C96.964 33.9545 96.9489 35.8485 97.267 37.5455C97.5852 39.2424 98.267 40.5909 99.3125 41.5909C100.358 42.5909 101.797 43.0909 103.631 43.0909ZM142.807 49L150.534 2.45454H180.352L179.17 9.52273H157.784L155.693 22.1591H175.034L173.852 29.2273H154.511L151.239 49H142.807ZM179.943 49L185.761 14.0909H193.989L188.17 49H179.943ZM191.08 9.09091C189.761 9.09091 188.67 8.65151 187.807 7.77272C186.943 6.89394 186.564 5.84091 186.67 4.61364C186.777 3.38636 187.33 2.33333 188.33 1.45454C189.345 0.575757 190.504 0.136364 191.807 0.136364C193.125 0.136364 194.208 0.575757 195.057 1.45454C195.92 2.33333 196.299 3.38636 196.193 4.61364C196.102 5.84091 195.549 6.89394 194.534 7.77272C193.534 8.65151 192.383 9.09091 191.08 9.09091ZM219.881 14.0909L218.812 20.4545H198.767L199.812 14.0909H219.881ZM206.131 5.72727H214.358L208.903 38.5C208.737 39.6061 208.767 40.4545 208.994 41.0455C209.237 41.6212 209.623 42.0152 210.153 42.2273C210.699 42.4394 211.312 42.5455 211.994 42.5455C212.494 42.5455 212.964 42.5076 213.403 42.4318C213.843 42.3409 214.191 42.2727 214.449 42.2273L214.812 48.6591C214.312 48.8106 213.638 48.9773 212.79 49.1591C211.956 49.3409 210.956 49.447 209.79 49.4773C207.699 49.5227 205.881 49.2045 204.335 48.5227C202.805 47.8258 201.684 46.7576 200.972 45.3182C200.275 43.8636 200.116 42.0455 200.494 39.8636L206.131 5.72727Z" fill="black"/>
</svg>
